<?xml version="1.0" standalone="no"?>
<!DOCTYPE svg PUBLIC "-//W3C//DTD SVG 20010904//EN"
 "http://www.w3.org/TR/2001/REC-SVG-20010904/DTD/svg10.dtd">
<svg version="1.0" xmlns="http://www.w3.org/2000/svg"
 width="7455.000000pt" height="1862.000000pt" viewBox="0 0 7455.000000 1862.000000"
 preserveAspectRatio="xMidYMid meet">
<metadata>
Created by potrace 1.15, written by Peter Selinger 2001-2017
</metadata>
<g transform="translate(0.000000,1862.000000) scale(0.100000,-0.100000)"
fill="#000000" stroke="none">
<path d="M140 9285 l0 -9185 3968 0 c2519 0 4036 4 4157 10 794 42 1537 164
2146 354 822 255 1550 693 2037 1226 540 590 899 1322 1071 2185 145 723 168
1622 60 2350 -84 569 -267 1124 -524 1586 -89 160 -271 429 -391 579 -615 765
-1539 1257 -2721 1450 -61 10 -73 15 -73 31 0 11 9 20 23 23 12 3 80 17 151
31 443 90 905 291 1267 552 342 246 647 557 864 883 331 497 517 1068 602
1850 26 241 26 1002 0 1240 -135 1228 -634 2172 -1517 2872 -789 625 -1941
998 -3435 1113 -435 33 -644 35 -4157 35 l-3528 0 0 -9185z m6495 7685 c1427
-58 2412 -248 3095 -595 886 -451 1330 -1295 1330 -2530 0 -1167 -395 -2075
-1150 -2644 -532 -401 -1291 -655 -2300 -770 -170 -19 -286 -30 -595 -53 -104
-8 -919 -12 -2637 -15 l-2488 -4 0 3311 0 3310 2253 0 c1307 0 2353 -4 2492
-10z m570 -8110 c1478 -51 2330 -209 3060 -565 532 -260 896 -582 1183 -1050
226 -369 365 -822 428 -1395 21 -198 30 -735 15 -975 -69 -1119 -376 -1887
-946 -2364 -560 -467 -1641 -768 -3150 -876 -672 -48 -1146 -55 -3727 -55
l-2178 0 0 3645 0 3645 2513 0 c1479 0 2631 -4 2802 -10z"/>
<path d="M15120 9285 l0 -9185 870 0 870 0 0 4170 0 4171 2953 -4 c2110 -3
2991 -7 3087 -15 856 -73 1404 -203 1890 -447 562 -283 956 -859 1143 -1675
87 -377 137 -908 197 -2085 53 -1040 118 -1862 201 -2515 81 -646 193 -1087
370 -1457 l68 -143 965 0 966 0 0 88 0 88 -79 80 c-94 96 -174 214 -246 367
-267 565 -381 1436 -440 3377 -42 1352 -108 2001 -269 2645 -101 400 -199 678
-334 940 -150 290 -342 555 -567 781 -295 296 -617 493 -1094 667 l-64 23 284
141 c533 264 913 505 1284 814 147 123 416 396 531 539 500 626 756 1361 846
2425 19 232 16 944 -5 1175 -110 1171 -475 2037 -1137 2700 -805 805 -2102
1307 -3780 1464 -556 53 -298 50 -4557 53 l-3953 4 0 -9186z m8015 7672 c971
-91 1521 -224 2072 -501 301 -151 515 -300 727 -506 140 -136 219 -227 318
-365 393 -550 570 -1174 570 -2015 0 -896 -206 -1580 -651 -2165 -97 -127
-345 -378 -481 -486 -126 -99 -374 -263 -525 -347 -523 -290 -1143 -484 -1843
-577 -471 -63 -243 -59 -3494 -62 l-2968 -4 0 3526 0 3526 3048 -4 c2762 -3
3064 -5 3227 -20z"/>
<path d="M30140 9285 l0 -9186 3548 4 c3805 4 3601 1 4182 52 906 79 1789 246
2455 462 1133 368 2038 1008 2876 2033 462 565 857 1243 1141 1960 368 927
647 2176 753 3380 48 544 68 1355 46 1855 -59 1346 -272 2556 -653 3715 -232
708 -527 1336 -913 1951 -243 386 -486 692 -800 1004 -282 283 -539 489 -920
741 -355 234 -767 455 -1140 610 -198 82 -578 209 -785 263 -484 126 -1186
232 -1885 285 -710 54 -821 56 -4497 56 l-3408 0 0 -9185z m6965 7677 c94 -6
247 -16 340 -22 1545 -100 2352 -326 3239 -907 303 -198 517 -373 776 -633
769 -769 1304 -1775 1624 -3055 292 -1170 395 -2802 270 -4290 -74 -893 -212
-1616 -450 -2365 -236 -739 -542 -1348 -952 -1889 -509 -673 -1117 -1159
-1912 -1526 -944 -437 -1712 -599 -3200 -676 -140 -7 -1039 -13 -2582 -16
l-2368 -5 0 7702 0 7701 2523 -4 c1688 -3 2578 -8 2692 -15z"/>
<path d="M47453 9302 c-1982 -5042 -3605 -9175 -3609 -9185 -6 -16 41 -17 893
-17 l898 0 1060 2818 c582 1549 1070 2845 1083 2880 l24 62 4180 -2 4180 -3
1056 -2877 1057 -2878 898 0 c493 0 897 3 897 8 0 4 -1583 4136 -3518 9182
l-3517 9175 -990 2 -990 3 -3602 -9168z m6326 2848 l1788 -4795 -1793 -3
c-987 -1 -2601 -1 -3587 0 l-1793 3 1786 4785 c982 2632 1789 4794 1794 4805
4 11 10 16 12 10 2 -5 809 -2168 1793 -4805z"/>
<path d="M61010 9285 l0 -9185 870 0 870 0 0 4170 0 4171 2953 -4 c2110 -3
2991 -7 3087 -15 856 -73 1404 -203 1890 -447 562 -283 956 -859 1143 -1675
87 -377 137 -908 197 -2085 53 -1040 118 -1862 201 -2515 81 -646 193 -1087
370 -1457 l68 -143 945 0 946 0 0 106 0 106 -62 66 c-79 85 -157 205 -223 345
-267 565 -381 1436 -440 3377 -42 1352 -108 2001 -269 2645 -101 400 -199 678
-334 940 -150 290 -342 555 -567 781 -295 296 -617 493 -1094 667 l-64 23 284
141 c533 264 913 505 1284 814 147 123 416 396 531 539 500 626 756 1361 846
2425 19 232 16 944 -5 1175 -110 1171 -475 2037 -1137 2700 -805 805 -2102
1307 -3780 1464 -556 53 -298 50 -4557 53 l-3953 4 0 -9186z m8015 7672 c971
-91 1521 -224 2072 -501 301 -151 515 -300 727 -506 140 -136 219 -227 318
-365 393 -550 570 -1174 570 -2015 0 -896 -206 -1580 -651 -2165 -97 -127
-345 -378 -481 -486 -126 -99 -374 -263 -525 -347 -523 -290 -1143 -484 -1843
-577 -471 -63 -243 -59 -3494 -62 l-2968 -4 0 3526 0 3526 3048 -4 c2762 -3
3064 -5 3227 -20z"/>
</g>
</svg>
